#!OML:ASF I:\Random Stuff\random\construction\7_22_03\Session 2\subj1.ASF
:FULLY-SPECIFIED
:DEGREES
513
root -9.63728 17.6797 2.59694 -172.92 -38.7337 -177.659
lowerback 5.10018 1.35696 -2.12688
upperback -0.975999 1.67242 0.0447788
thorax -3.93088 0.879567 1.09765
lowerneck -26.6996 3.66255 3.12633
upperneck 37.4583 3.21244 -1.46287
head 18.8418 0.996237 -0.659112
rclavicle -2.32578e-014 -1.03368e-014
rhumerus -25.103 16.2141 -71.0276
rradius 80.5365
rwrist -35.5544
rhand -22.8069 11.4704
rfingers 7.12502
rthumb 3.62957 -18.4784
lclavicle -2.32578e-014 -1.03368e-014
lhumerus -18.3796 -17.5823 76.8723
lradius 81.1742
lwrist 50.1178
lhand -20.3302 66.5098
lfingers 7.12502
lthumb -173.979 83.5958
rfemur -29.1913 16.6646 9.2432
rtibia 8.96038
rfoot -9.13687 -28.3432
rtoes -10.2403
lfemur -6.99632 -11.1522 -19.1926
ltibia 17.413
lfoot -18.2731 -6.17957
ltoes -20.7828
514
root -9.6985 17.6433 2.39003 -172.846 -39.9884 -177.819
lowerback 5.05997 1.32967 -1.94912
upperback -0.966785 1.65048 0.0861744
thorax -3.89374 0.864906 1.04374
lowerneck -26.7329 3.36203 2.87584
upperneck 37.6635 2.81003 -1.35776
head 18.9477 0.813589 -0.663541
rclavicle 7.85696e-014 2.92213e-014
rhumerus -25.016 16.3455 -70.7928
rradius 80.5388
rwrist -35.6417
rhand -22.7546 11.5367
rfingers 7.12502
rthumb 3.68005 -18.4113
lclavicle 7.85696e-014 2.92213e-014
lhumerus -18.1875 -17.848 76.9048
lradius 80.9391
lwrist 50.2637
lhand -20.2527 66.5476
lfingers 7.12502
lthumb -173.904 83.5601
rfemur -28.974 16.1911 8.78199
rtibia 7.09933
rfoot -8.93214 -27.6276
rtoes -12.4874
lfemur -6.53816 -11.1759 -19.0211
ltibia 17.6077
lfoot -18.6696 -7.37007
ltoes -19.6908
515
root -9.76068 17.6026 2.17956 -172.745 -41.1796 -178.126
lowerback 5.02923 1.28635 -1.88376
upperback -0.892853 1.59997 0.133204
thorax -3.79755 0.837633 1.06169
lowerneck -26.7304 3.08369 2.58611
upperneck 37.7456 2.45929 -1.21288
head 18.9735 0.656879 -0.62701
rclavicle 1.59028e-014 1.07344e-014
rhumerus -24.7792 16.6025 -70.5268
rradius 80.4649
rwrist -35.742
rhand -22.7302 11.4991
rfingers 7.12502
rthumb 3.70361 -18.4485
lclavicle 1.59028e-014 1.07344e-014
lhumerus -17.8974 -17.8964 76.97
lradius 80.6718
lwrist 50.2248
lhand -20.18 66.6633
lfingers 7.12502
lthumb -173.834 83.4464
rfemur -28.3819 15.8495 8.35073
rtibia 5.29561
rfoot -8.66214 -27.0815
rtoes -15.1329
lfemur -6.06251 -11.1667 -18.9649
ltibia 17.9425
lfoot -19.0689 -8.45454
ltoes -18.8039
516
root -9.82463 17.5589 1.96423 -172.666 -42.3039 -178.461
lowerback 5.02297 1.23949 -1.81765
upperback -0.82923 1.54454 0.194918
thorax -3.72615 0.808333 1.09395
lowerneck -26.6605 2.84589 2.32484
upperneck 37.857 2.21141 -1.20862
head 19.0078 0.519089 -0.640567
rclavicle -1.15544e-014 -2.70347e-014
rhumerus -24.5129 16.9599 -70.2888
rradius 80.3007
rwrist -35.8786
rhand -22.7527 11.3882
rfingers 7.12502
rthumb 3.68196 -18.5597
lclavicle -1.15544e-014 -2.70347e-014
lhumerus -17.6841 -17.8582 77.0791
lradius 80.3845
lwrist 50.0876
lhand -20.1137 66.8671
lfingers 7.12502
lthumb -173.77 83.2445
rfemur -27.5949 15.6383 8.01366
rtibia 3.729
rfoot -8.48182 -26.5768
rtoes -14.2069
lfemur -5.55437 -11.093 -18.9079
ltibia 18.3196
lfoot -19.3581 -9.6018
ltoes -17.8699
517
root -9.8868 17.5045 1.74432 -172.621 -43.3877 -178.767
lowerback 5.05536 1.18697 -1.71573
upperback -0.81465 1.48303 0.264976
thorax -3.7264 0.776272 1.11373
lowerneck -26.5436 2.63071 1.99007
upperneck 38.0569 1.97444 -1.10154
head 19.0806 0.384744 -0.591816
rclavicle 3.13583e-014 -2.17669e-014
rhumerus -24.3027 17.4228 -70.1129
rradius 80.111
rwrist -36.0331
rhand -22.9181 11.0579
rfingers 7.12502
rthumb 3.52219 -18.8928
lclavicle 3.13583e-014 -2.17669e-014
lhumerus -17.5718 -17.8343 77.1034
lradius 80.0999
lwrist 50.0182
lhand -20.0204 66.9826
lfingers 7.12502
lthumb -173.68 83.1316
rfemur -26.7772 15.6028 7.95013
rtibia 3.15431
rfoot -8.14526 -26.2248
rtoes -15.9392
lfemur -4.98116 -10.932 -18.7886
ltibia 18.6447
lfoot -19.6411 -10.8243
ltoes -16.8004
518
root -9.94935 17.4441 1.51588 -172.551 -44.3973 -179.176
lowerback 5.04437 1.1499 -1.66801
upperback -0.758856 1.43795 0.292089
thorax -3.66043 0.75221 1.1196
lowerneck -26.5444 2.45847 1.61888
upperneck 38.3773 1.72234 -0.797957
head 19.2558 0.265922 -0.446089
rclavicle -1.03983e-013 7.85199e-015
rhumerus -24.0886 17.8838 -70.0008
rradius 79.9371
rwrist -36.1308
rhand -23.2145 10.5449
rfingers 7.12502
rthumb 3.23597 -19.4103
lclavicle -1.03983e-013 7.85199e-015
lhumerus -17.3522 -17.7807 77.0607
lradius 79.7051
lwrist 49.8679
lhand -19.9302 67.0259
lfingers 7.12502
lthumb -173.593 83.091
rfemur -26.5114 15.7032 7.94449
rtibia 4.18583
rfoot -7.3807 -25.556
rtoes -15.9868
lfemur -4.21957 -10.8446 -18.7265
ltibia 18.8023
lfoot -19.8322 -11.953
ltoes -15.5977
519
root -10.0179 17.3865 1.27623 -172.501 -45.291 -179.744
lowerback 5.07468 1.16978 -1.69254
upperback -0.65435 1.46156 0.267608
thorax -3.57015 0.762557 1.10683
lowerneck -26.5605 2.34196 1.46923
upperneck 38.7106 1.55567 -0.747177
head 19.4574 0.1746 -0.441526
rclavicle -3.926e-015 1.59028e-014
rhumerus -23.9117 18.2163 -69.9543
rradius 79.6997
rwrist -36.1423
rhand -23.3805 10.2464
rfingers 7.12502
rthumb 3.07567 -19.7111
lclavicle -3.926e-015 1.59028e-014
lhumerus -17.0568 -17.8509 77.0109
lradius 79.3042
lwrist 49.8738
lhand -19.8624 67.0355
lfingers 7.12502
lthumb -173.527 83.0834
rfemur -26.3868 15.9774 7.95274
rtibia 6.06636
rfoot -4.57987 -24.9373
rtoes -20.6505
lfemur -3.16495 -10.9827 -18.8029
ltibia 18.7915
lfoot -19.8071 -12.9195
ltoes -13.996
520
root -10.0872 17.3466 1.02919 -172.502 -46.2164 -180.328
lowerback 5.19282 1.18392 -1.6798
upperback -0.56644 1.47746 0.227662
thorax -3.54487 0.768666 1.05589
lowerneck -26.4634 2.22007 1.42053
upperneck 38.9539 1.40601 -0.852887
head 19.5798 0.0835078 -0.526766
rclavicle 2.72335e-014 -1.19271e-014
rhumerus -23.7728 18.4098 -70.0343
rradius 79.3185
rwrist -36.1303
rhand -23.424 10.2806
rfingers 7.12502
rthumb 3.03365 -19.6775
lclavicle 2.72335e-014 -1.19271e-014
lhumerus -16.8881 -18.0318 76.9363
lradius 79.0601
lwrist 50.1527
lhand -19.8144 67.102
lfingers 7.12502
lthumb -173.481 83.0183
rfemur -26.4547 16.2342 8.00677
rtibia 8.1336
rfoot 0.27716 -25.0065
rtoes -26.9013
lfemur -1.99046 -11.3491 -18.875
ltibia 18.6981
lfoot -19.6124 -13.719
ltoes -12.498
521
root -10.1541 17.3188 0.779475 -172.669 -47.1627 -180.622
lowerback 5.30805 1.1473 -1.46561
upperback -0.485596 1.44123 0.257826
thorax -3.52026 0.745794 0.968609
lowerneck -26.378 2.09902 1.20046
upperneck 39.1527 1.26145 -0.758577
head 19.6733 0.000609984 -0.481091
rclavicle 1.96797e-014 2.28602e-015
rhumerus -23.6381 18.6547 -70.2224
rradius 78.9684
rwrist -36.2243
rhand -23.6062 10.2944
rfingers 7.12502
rthumb 2.85768 -19.6662
lclavicle 1.96797e-014 2.28602e-015
lhumerus -16.8788 -17.9542 76.9076
lradius 78.8017
lwrist 50.1865
lhand -19.7607 67.2559
lfingers 7.12502
lthumb -173.429 82.866
rfemur -26.552 16.3731 7.99413
rtibia 10.043
rfoot 3.48487 -25.5082
rtoes -26.9541
lfemur -0.950629 -11.7499 -18.6939
ltibia 18.7624
lfoot -19.3153 -14.3761
ltoes -11.9615
522
root -10.2167 17.3004 0.536276 -173.222 -47.8945 -180.397
lowerback 5.56405 1.14025 -0.948116
upperback -0.400511 1.46694 0.41172
thorax -3.5678 0.749233 0.830797
lowerneck -26.3389 2.05495 1.01347
upperneck 39.2585 1.23177 -0.647865
head 19.7243 -0.0250697 -0.402264
rclavicle 1.09679e-013 1.51076e-014
rhumerus -23.4792 19.0293 -70.418
rradius 78.7126
rwrist -36.2301
rhand -24.0078 10.0561
rfingers 7.12502
rthumb 2.46985 -19.9094
lclavicle 1.09679e-013 1.51076e-014
lhumerus -16.9239 -17.6084 76.9193
lradius 78.4555
lwrist 50.1394
lhand -19.7044 67.2857
lfingers 7.12502
lthumb -173.375 82.8379
rfemur -26.1191 13.2652 9.99673
rtibia 11.718
rfoot 5.47481 -22.5541
rtoes -24.3259
lfemur -0.114705 -11.7406 -18.1105
ltibia 19.1726
lfoot -18.8258 -15.1599
ltoes -12.6363
